# xmcd CD database file
#
# Track frame offsets:
#	150
#	18245
#	35482
#	50828
#	67708
#	84101
#	100721
#	120611
#	138389
#	155308
#	171158
#	185931
#	203765
#	223732
#	238003
#	255795
#	271603
#	287994
#	305944
#
# Disc length: 4288 seconds
#
# Revision: 0
# Processed by: cddbd v1.5.2PL0 Copyright (c) Steve Scherf et al.
# Submitted via: CDex 1.51
#
DISCID=0910be13
DTITLE=Various Artist - The Best Of Hit Man: 25th Anniversary Edition [CD1)
DYEAR=2017
DGENRE=90's
TTITLE0=Dr. Alban - Sing Hallelujah! (Short)
TTITLE1=Backstreet Boys - Get Down (You're the One for Me)
TTITLE2=Scatman John - Scatman (Ski-Ba-Bop-Ba-Dop-Bop) (Basic Radio)
TTITLE3=Inner Circle - Sweat (A La La La La Long) (Original Version)
TTITLE4=Lou Bega - Mambo No.5 (A Little Bit Of...) (Radio Edit)
TTITLE5=Los Del Rio - Macarena (Bayside Boys Remix)
TTITLE6=Jovanotti - L'Ombelico Del Mondo
TTITLE7=Prince Ital Joe feat. Marky Mark - United (Radio Edit)
TTITLE8=Jazzy Jeff and the Fresh Prince - Boom! Shake The Room
TTITLE9=Mark Morrison - Return Of The Mack (C and J Radio Edit)
TTITLE10=Dawn Penn - You Don't Love Me (No No No) (Original Radio)
TTITLE11=TLC - No Scrubs (Main Mix)
TTITLE12=Snow - Informer
TTITLE13=Shaggy - Oh Carolina (Radio Version)
TTITLE14=Dario G - Carnaval De Paris (Radio Mix)
TTITLE15=Opus III - It's A Fine Day (Edit)
TTITLE16=M People - M People - One Night In Heaven
TTITLE17=No Mercy - Please Don't Go
TTITLE18=Londonbeat - You Bring On The Sun
EXTD=YEAR: 2017
EXTT0=
EXTT1=
EXTT2=
EXTT3=
EXTT4=
EXTT5=
EXTT6=
EXTT7=
EXTT8=
EXTT9=
EXTT10=
EXTT11=
EXTT12=
EXTT13=
EXTT14=
EXTT15=
EXTT16=
EXTT17=
EXTT18=
PLAYORDER=
